<?xml version="1.0" encoding="UTF-8" standalone="no"?><!-- Generator: Gravit.io --><svg xmlns="http://www.w3.org/2000/svg" xmlns:xlink="http://www.w3.org/1999/xlink" style="isolation:isolate" viewBox="0 0 30.2 29.5" width="30.2pt" height="29.5pt"><defs><clipPath id="_clipPath_T8ZBqlPmmVTeEn72evm8ycN1RCZrEDWG"><rect width="30.2" height="29.5"/></clipPath></defs><g clip-path="url(#_clipPath_T8ZBqlPmmVTeEn72evm8ycN1RCZrEDWG)"><linearGradient id="_lgradient_0" x1="0" y1="0.5" x2="1" y2="0.5" gradientTransform="matrix(31,0,0,30,0,0)" gradientUnits="userSpaceOnUse"><stop offset="0%" stop-opacity="1" style="stop-color:rgb(39,174,96)"/><stop offset="99.1304347826087%" stop-opacity="1" style="stop-color:rgb(41,128,185)"/></linearGradient><path d=" M 8.698 28.09 L 8.698 28.868 C 8.698 29.493 9.21 30 9.841 30 L 29.856 30 C 30.488 30 31 29.493 31 28.868 L 31 1.132 C 31 0.507 30.488 0 29.856 0 L 9.841 0 C 9.21 0 8.698 0.507 8.698 1.132 L 8.698 1.91 C 8.698 2.535 9.21 3.042 9.841 3.042 L 26.425 3.042 C 27.056 3.042 27.569 3.55 27.569 4.175 L 27.569 25.825 C 27.569 26.45 27.056 26.958 26.425 26.958 L 9.841 26.958 C 9.21 26.958 8.698 27.465 8.698 28.09 Z  M 7.707 19.736 L 0.41 15.566 C -0.137 15.254 -0.137 14.746 0.41 14.434 L 7.707 10.264 C 8.254 9.951 8.698 10.205 8.698 10.83 L 8.698 15 L 8.698 17.033 L 8.698 19.17 C 8.698 19.795 8.254 20.049 7.707 19.736 L 7.707 19.736 Z  M 8.698 12.967 L 20.135 12.967 C 20.766 12.967 21.279 13.474 21.279 14.099 L 21.279 15.901 C 21.279 16.526 20.766 17.033 20.135 17.033 L 8.698 17.033 C 8.698 15.678 8.698 14.322 8.698 12.967 L 8.698 12.967 Z " fill-rule="evenodd" fill="url(#_lgradient_0)"/></g></svg>