<?xml version="1.0" encoding="UTF-8" standalone="no"?><!-- Generator: Gravit.io --><svg xmlns="http://www.w3.org/2000/svg" xmlns:xlink="http://www.w3.org/1999/xlink" style="isolation:isolate" viewBox="0 0 21.8 21.8" width="21.8pt" height="21.8pt"><defs><clipPath id="_clipPath_F4tX2dXUm6ecL6WfFhiJqnCOv2g6u0I5"><rect width="21.8" height="21.8"/></clipPath></defs><g clip-path="url(#_clipPath_F4tX2dXUm6ecL6WfFhiJqnCOv2g6u0I5)"><rect width="21.8" height="21.8" style="fill:rgb(46,46,46)" fill-opacity="0"/><path d=" M 13.71 12.456 C 16.104 9.44 15.907 5.037 13.119 2.25 C 10.12 -0.75 5.249 -0.75 2.25 2.25 C -0.75 5.249 -0.75 10.12 2.25 13.119 L 2.25 13.119 C 5.037 15.907 9.44 16.104 12.456 13.71 L 20.52 21.774 L 21.774 20.52 L 13.71 12.456 Z  M 3.086 12.283 C 0.548 9.745 0.548 5.624 3.086 3.086 C 5.624 0.548 9.745 0.548 12.283 3.086 C 14.821 5.624 14.821 9.745 12.283 12.283 C 9.745 14.821 5.624 14.821 3.086 12.283 L 3.086 12.283 Z " fill-rule="evenodd" fill="rgb(20,20,20)"/></g></svg>