<?xml version="1.0" encoding="UTF-8" standalone="no"?><!-- Generator: Gravit.io --><svg xmlns="http://www.w3.org/2000/svg" xmlns:xlink="http://www.w3.org/1999/xlink" style="isolation:isolate" viewBox="0 0 31.4 27.2" width="31.4pt" height="27.2pt"><defs><clipPath id="_clipPath_cUynSnJ3qdMKEQl9hfRB32yvL35gAUjZ"><rect width="31.4" height="27.2"/></clipPath></defs><g clip-path="url(#_clipPath_cUynSnJ3qdMKEQl9hfRB32yvL35gAUjZ)"><path d=" M 14.684 10.083 L 16.684 10.083 L 16.684 19.083 L 14.684 19.083 L 14.684 10.083 L 14.684 10.083 Z  M 15.684 4.119 L 21.747 14.619 L 27.809 25.119 L 15.684 25.119 L 3.56 25.119 L 9.622 14.619 L 15.684 4.119 L 15.684 4.119 L 15.684 4.119 Z  M 15.684 0 L 23.527 13.583 L 31.369 27.166 L 15.684 27.166 L 0 27.166 L 7.842 13.583 L 15.684 0 L 15.684 0 L 15.684 0 Z  M 14.684 21.13 L 16.684 21.13 L 16.684 23.13 L 14.684 23.13 L 14.684 21.13 Z " fill-rule="evenodd" fill="rgb(255,255,255)"/></g></svg>